<svg id="Layer_1" data-name="Layer 1" xmlns="http://www.w3.org/2000/svg" xmlns:xlink="http://www.w3.org/1999/xlink" viewBox="0 0 510 447"><defs><style>.cls-1,.cls-16,.cls-18,.cls-2,.cls-20,.cls-21,.cls-22,.cls-23,.cls-24,.cls-28,.cls-3,.cls-33{fill:none;}.cls-1{clip-rule:evenodd;}.cls-3{fill-rule:evenodd;}.cls-4{clip-path:url(#clip-path);}.cls-5{clip-path:url(#clip-path-2);}.cls-35,.cls-38,.cls-39,.cls-40,.cls-6{fill:#374553;}.cls-7{clip-path:url(#clip-path-3);}.cls-8{clip-path:url(#clip-path-5);}.cls-9{clip-path:url(#clip-path-7);}.cls-10{clip-path:url(#clip-path-9);}.cls-11{clip-path:url(#clip-path-11);}.cls-12{clip-path:url(#clip-path-23);}.cls-13{clip-path:url(#clip-path-25);}.cls-14{fill:#fbfaf7;}.cls-15{clip-path:url(#clip-path-27);}.cls-16,.cls-18,.cls-20,.cls-21,.cls-22,.cls-23,.cls-24,.cls-28,.cls-33{stroke:#374553;stroke-miterlimit:10;}.cls-16,.cls-18,.cls-33{stroke-width:3px;}.cls-17{clip-path:url(#clip-path-30);}.cls-18{stroke-dasharray:6 3;}.cls-19{clip-path:url(#clip-path-33);}.cls-20,.cls-21,.cls-22,.cls-23,.cls-24,.cls-33{stroke-linecap:square;}.cls-20{stroke-width:1.5px;}.cls-21{stroke-width:1.5px;}.cls-22{stroke-width:1.5px;}.cls-23{stroke-width:1.5px;}.cls-24{stroke-width:1.5px;}.cls-25{clip-path:url(#clip-path-36);}.cls-26{clip-path:url(#clip-path-42);}.cls-27{clip-path:url(#clip-path-43);}.cls-28{stroke-width:6px;}.cls-29{clip-path:url(#clip-path-47);}.cls-30{clip-path:url(#clip-path-48);}.cls-31{clip-path:url(#clip-path-52);}.cls-32{clip-path:url(#clip-path-56);}.cls-34{clip-path:url(#clip-path-59);}.cls-35{font-size:42px;}.cls-35,.cls-38,.cls-39,.cls-40{font-family:Bazar, Bazar;}.cls-36{letter-spacing:-0.03em;}.cls-37{letter-spacing:-0.03em;}.cls-38{font-size:13px;}.cls-39{font-size:24px;}.cls-40{font-size:24px;}</style><clipPath id="clip-path"><path class="cls-1" d="M261.41,63.26a9,9,0,0,1,17.69,2.19l.24,0,.24,0a9,9,0,0,1,17.3,4.3l.48.15A9,9,0,0,1,314,76.37q6.71,3,13,6.71a150,150,0,0,1-51.55,278.12q-7.21,1.15-14.58,1.59a9,9,0,0,1-17.82,0l-.5,0a9,9,0,0,1-17.69-2.19l-.24,0-.24,0a9,9,0,0,1-17.3-4.3l-.48-.15A9,9,0,0,1,190,349.63q-6.71-3-13-6.71A150,150,0,0,1,228.51,64.81q7.21-1.15,14.58-1.59a9,9,0,0,1,17.82,0Z"/></clipPath><clipPath id="clip-path-2"><rect class="cls-2" width="510" height="447"/></clipPath><clipPath id="clip-path-3"><path class="cls-1" d="M190,76.37A9,9,0,0,1,206.65,70l.24-.07.24-.07a9,9,0,0,1,17.29-4.32l.49-.09a9,9,0,0,1,17.69-2.17q7.36-.46,14.66-.2a150,150,0,0,1,85.06,269.76q-5.83,4.4-12.13,8.24a9,9,0,0,1-15.73,8.37l-.45.21A9,9,0,0,1,297.35,356l-.24.07-.24.07a9,9,0,0,1-17.29,4.32l-.49.09a9,9,0,0,1-17.69,2.17q-7.36.46-14.66.2A150,150,0,0,1,161.69,93.18q5.83-4.4,12.13-8.24a9,9,0,0,1,15.73-8.37Z"/></clipPath><clipPath id="clip-path-5"><path class="cls-1" d="M133.12,121.46A9,9,0,0,1,144.82,108l.17-.18.17-.18A9,9,0,0,1,158.4,95.73l.39-.31a9,9,0,0,1,14.6-10.22q6.28-3.86,12.85-7.06A150,150,0,0,1,388,276.39q-3.08,6.62-6.84,13a9,9,0,0,1-10,14.77l-.3.4A9,9,0,0,1,359.18,318l-.17.18-.17.18a9,9,0,0,1-13.24,11.94l-.39.31a9,9,0,0,1-14.6,10.22q-6.28,3.86-12.85,7.06A150,150,0,0,1,116,149.61q3.08-6.62,6.84-13a9,9,0,0,1,10-14.77Z"/></clipPath><clipPath id="clip-path-7"><path class="cls-1" d="M104.06,188a9,9,0,0,1,4-17.36l.07-.24.07-.24a9,9,0,0,1,6.08-16.75l.2-.46a9,9,0,0,1,8.09-15.88q3.73-6.36,8-12.27a150,150,0,0,1,271.21,80.33q.39,7.29.05,14.66A9,9,0,0,1,400,237.52l-.08.49a9,9,0,0,1-4,17.36l-.07.24-.07.24a9,9,0,0,1-6.08,16.75l-.2.46a9,9,0,0,1-8.09,15.88q-3.73,6.36-8,12.27a150,150,0,0,1-271.21-80.33q-.39-7.29-.05-14.66A9,9,0,0,1,104,188.48Z"/></clipPath><clipPath id="clip-path-9"><path class="cls-1" d="M330.61,85.2A9,9,0,0,1,345.2,95.43l.19.15.19.15a9,9,0,0,1,13.25,11.92l.35.36a9,9,0,0,1,11.69,13.45q4.5,5.84,8.37,12A150,150,0,0,1,203.17,354.87q-6.9-2.37-13.62-5.44a9,9,0,0,1-15.73-8.37l-.43-.26a9,9,0,0,1-14.59-10.23l-.19-.15-.19-.15a9,9,0,0,1-13.25-11.92l-.35-.36a9,9,0,0,1-11.69-13.45q-4.5-5.84-8.37-12A150,150,0,0,1,300.83,71.13q6.9,2.37,13.62,5.44a9,9,0,0,1,15.73,8.37Z"/></clipPath><clipPath id="clip-path-11"><path class="cls-1" d="M381.41,137.06A9,9,0,0,1,389.48,153l.1.23.1.23a9,9,0,0,1,6.11,16.74l.14.48a9,9,0,0,1,4,17.36q1.23,7.27,1.73,14.56A150,150,0,0,1,142.28,315.34q-5-5.34-9.47-11.2a9,9,0,0,1-10-14.77l-.25-.43A9,9,0,0,1,114.52,273l-.1-.23-.1-.23a9,9,0,0,1-6.11-16.74l-.14-.48a9,9,0,0,1-4-17.36q-1.23-7.27-1.73-14.56A150,150,0,0,1,361.72,110.66q5,5.34,9.47,11.2a9,9,0,0,1,10,14.77Z"/></clipPath><clipPath id="clip-path-23"><path class="cls-1" d="M381.45,138.56a9,9,0,0,1,8.08,15.89l.1.23.1.23a9,9,0,0,1,6.11,16.74l.14.48a9,9,0,0,1,4,17.36q1.23,7.27,1.73,14.56A150,150,0,0,1,142.32,316.84q-5-5.34-9.47-11.2a9,9,0,0,1-10-14.77l-.25-.43a9,9,0,0,1-8.08-15.89l-.1-.23-.1-.23a9,9,0,0,1-6.11-16.74l-.14-.48a9,9,0,0,1-4-17.36q-1.23-7.27-1.73-14.56A150,150,0,0,1,361.76,112.16q5,5.34,9.47,11.2a9,9,0,0,1,10,14.77Z"/></clipPath><clipPath id="clip-path-25"><circle class="cls-2" cx="252" cy="213" r="142.5"/></clipPath><clipPath id="clip-path-27"><circle class="cls-2" cx="252" cy="213" r="135"/></clipPath><clipPath id="clip-path-30"><circle class="cls-2" cx="252" cy="213" r="127.5"/></clipPath><clipPath id="clip-path-33"><circle class="cls-2" cx="252" cy="213" r="97.5"/></clipPath><clipPath id="clip-path-36"><circle class="cls-2" cx="252" cy="252" r="45"/></clipPath><clipPath id="clip-path-42"><path class="cls-1" d="M25.48,243.24,22,244.5,25.38,246,64.5,263.7l-.73-2-18.6,38.7-1.6,3.32L47,302.44l70.48-25.65,1.41-.51-.51-1.41L97.88,218.49l-.51-1.41-1.41.51Zm1,2.82L97,220.41l-1.92-.9,20.52,56.38.9-1.92L46,299.62l1.86,2.06L66.47,263l.67-1.38-1.4-.63L26.61,243.28Zm-81.39-37.42,188.11-68.47,62.59,172L7.71,380.6Z"/></clipPath><clipPath id="clip-path-43"><polygon class="cls-1" points="25.99 244.65 96.47 219 116.99 275.38 46.52 301.03 65.12 262.34 25.99 244.65"/></clipPath><clipPath id="clip-path-47"><path class="cls-1" d="M479.08,243.67l3.46,1.26-3.36,1.52-39.12,17.69.73-2,18.6,38.7,1.6,3.32-3.46-1.26-70.48-25.65-1.41-.51.51-1.41,20.52-56.38.51-1.41,1.41.51Zm-1,2.82-70.48-25.65,1.92-.9L389,276.32l-.9-1.92,70.48,25.65-1.86,2.06-18.6-38.7-.67-1.38,1.4-.63L478,243.71Zm81.39-37.42L371.33,140.6l-62.59,172L496.85,381Z"/></clipPath><clipPath id="clip-path-48"><polygon class="cls-1" points="478.57 245.08 408.09 219.43 387.57 275.81 458.05 301.46 439.44 262.77 478.57 245.08"/></clipPath><clipPath id="clip-path-52"><rect class="cls-2" x="72" y="183" width="360" height="60"/></clipPath><clipPath id="clip-path-56"><polyline class="cls-1" points="103.33 243 113.65 271.55 75 243"/></clipPath><clipPath id="clip-path-59"><polyline class="cls-1" points="400.92 243 390.6 271.55 429.25 243"/></clipPath></defs><title>Artboard 1</title><g class="cls-4"><g class="cls-5"><rect class="cls-6" x="86.96" y="40.5" width="330.08" height="345"/></g></g><g class="cls-7"><g class="cls-5"><rect class="cls-6" x="86.96" y="40.5" width="330.08" height="345" transform="translate(-70.5 143.24) rotate(-28)"/></g></g><g class="cls-8"><g class="cls-5"><rect class="cls-6" x="86.96" y="40.5" width="330.08" height="345" transform="translate(-65.5 302.81) rotate(-56)"/></g></g><g class="cls-9"><g class="cls-5"><rect class="cls-6" x="86.96" y="40.5" width="330.08" height="345" transform="translate(13.83 441.35) rotate(-84)"/></g></g><g class="cls-10"><g class="cls-5"><rect class="cls-6" x="79.5" y="47.96" width="345" height="330.08" transform="translate(-54.37 335.51) rotate(-62)"/></g></g><g class="cls-11"><g class="cls-5"><rect class="cls-6" x="79.5" y="47.96" width="345" height="330.08" transform="translate(-76.03 177.33) rotate(-34)"/></g></g><g class="cls-4"><g class="cls-5"><rect class="cls-6" x="86.96" y="40.5" width="330.08" height="345"/></g></g><g class="cls-7"><g class="cls-5"><rect class="cls-6" x="86.96" y="40.5" width="330.08" height="345" transform="translate(-70.5 143.24) rotate(-28)"/></g></g><g class="cls-8"><g class="cls-5"><rect class="cls-6" x="86.96" y="40.5" width="330.08" height="345" transform="translate(-65.5 302.81) rotate(-56)"/></g></g><g class="cls-9"><g class="cls-5"><rect class="cls-6" x="86.96" y="40.5" width="330.08" height="345" transform="translate(13.83 441.35) rotate(-84)"/></g></g><g class="cls-10"><g class="cls-5"><rect class="cls-6" x="79.5" y="47.96" width="345" height="330.08" transform="translate(-54.37 335.51) rotate(-62)"/></g></g><g class="cls-12"><g class="cls-5"><rect class="cls-6" x="79.54" y="49.46" width="345" height="330.08" transform="translate(-76.86 177.61) rotate(-34)"/></g></g><g class="cls-13"><g class="cls-5"><rect class="cls-14" x="94.5" y="55.5" width="315" height="315"/></g></g><g class="cls-15"><g class="cls-5"><rect class="cls-14" x="102" y="63" width="300" height="300"/></g></g><g class="cls-5"><circle class="cls-16" cx="252" cy="213" r="135"/></g><g class="cls-17"><g class="cls-5"><rect class="cls-14" x="109.5" y="70.5" width="285" height="285"/></g></g><g class="cls-5"><circle class="cls-18" cx="252" cy="213" r="127.5"/></g><g class="cls-19"><g class="cls-5"><rect class="cls-14" x="139.5" y="100.5" width="225" height="225"/></g></g><g class="cls-5"><line class="cls-20" x1="252" y1="253.5" x2="252" y2="336"/><line class="cls-21" x1="171.95" y1="232.04" x2="250.54" y2="251.64"/><line class="cls-21" x1="251.9" y1="253.5" x2="246.16" y2="335.5"/><line class="cls-21" x1="251.79" y1="253.49" x2="240.31" y2="335.18"/><line class="cls-22" x1="251.69" y1="253.47" x2="234.47" y2="334.46"/><line class="cls-21" x1="251.59" y1="253.44" x2="228.6" y2="333.61"/><line class="cls-20" x1="251.49" y1="253.41" x2="222.76" y2="332.34"/><line class="cls-21" x1="251.39" y1="253.37" x2="216.86" y2="330.93"/><line class="cls-22" x1="251.3" y1="253.32" x2="211.02" y2="329.08"/><line class="cls-21" x1="251.21" y1="253.27" x2="205.42" y2="326.54"/><line class="cls-22" x1="251.12" y1="253.21" x2="199.63" y2="324.08"/><line class="cls-21" x1="251.04" y1="253.15" x2="193.96" y2="321.17"/><line class="cls-21" x1="250.96" y1="253.08" x2="188.65" y2="317.6"/><line class="cls-21" x1="250.89" y1="253" x2="183.11" y2="314.03"/><line class="cls-23" x1="250.82" y1="252.92" x2="178.01" y2="309.81"/><line class="cls-22" x1="250.76" y1="252.84" x2="172.66" y2="305.51"/><line class="cls-20" x1="250.7" y1="252.75" x2="167.04" y2="301.05"/><line class="cls-21" x1="250.65" y1="252.66" x2="162.21" y2="295.79"/><line class="cls-24" x1="250.61" y1="252.56" x2="157.43" y2="290.21"/><line class="cls-22" x1="250.57" y1="252.46" x2="153" y2="284.17"/><line class="cls-21" x1="250.54" y1="252.36" x2="148.66" y2="277.76"/><line class="cls-21" x1="250.52" y1="252.26" x2="145.05" y2="270.86"/><line class="cls-24" x1="250.51" y1="252.16" x2="141.61" y2="263.6"/><line class="cls-23" x1="250.5" y1="252.05" x2="138.07" y2="255.98"/><line class="cls-23" x1="250.5" y1="251.95" x2="135.07" y2="247.92"/><line class="cls-24" x1="250.51" y1="251.84" x2="149.07" y2="241.18"/><line class="cls-21" x1="250.52" y1="251.74" x2="170.75" y2="237.67"/></g><g class="cls-25"><g class="cls-5"><rect class="cls-14" x="192" y="192" width="120" height="120"/></g></g><g class="cls-5"><line class="cls-20" x1="252" y1="253.5" x2="252" y2="336"/><line class="cls-20" x1="220" y1="130.5" x2="220" y2="176.58"/><line class="cls-20" x1="211.4" y1="135.24" x2="211.4" y2="176.58"/><line class="cls-20" x1="202.8" y1="140.52" x2="202.8" y2="176.58"/><line class="cls-20" x1="194.2" y1="147.59" x2="194.2" y2="176.58"/><line class="cls-20" x1="185.6" y1="156.01" x2="185.6" y2="176.58"/><line class="cls-20" x1="177" y1="165.08" x2="177" y2="176.58"/><line class="cls-21" x1="332.05" y1="232.04" x2="253.46" y2="251.64"/><line class="cls-21" x1="252.1" y1="253.5" x2="257.84" y2="335.5"/><line class="cls-21" x1="252.21" y1="253.49" x2="263.69" y2="335.18"/><line class="cls-22" x1="252.31" y1="253.47" x2="269.53" y2="334.46"/><line class="cls-21" x1="252.41" y1="253.44" x2="275.4" y2="333.61"/><line class="cls-20" x1="252.51" y1="253.41" x2="281.24" y2="332.34"/><line class="cls-21" x1="252.61" y1="253.37" x2="287.14" y2="330.93"/><line class="cls-22" x1="252.7" y1="253.32" x2="292.98" y2="329.08"/><line class="cls-21" x1="252.79" y1="253.27" x2="298.58" y2="326.54"/><line class="cls-22" x1="252.88" y1="253.21" x2="304.37" y2="324.08"/><line class="cls-21" x1="252.96" y1="253.15" x2="310.04" y2="321.17"/><line class="cls-21" x1="253.04" y1="253.08" x2="315.35" y2="317.6"/><line class="cls-21" x1="253.11" y1="253" x2="320.89" y2="314.03"/><line class="cls-23" x1="253.18" y1="252.92" x2="325.99" y2="309.81"/><line class="cls-22" x1="253.24" y1="252.84" x2="331.34" y2="305.51"/><line class="cls-20" x1="253.3" y1="252.75" x2="336.96" y2="301.05"/><line class="cls-21" x1="253.35" y1="252.66" x2="341.79" y2="295.79"/><line class="cls-24" x1="253.39" y1="252.56" x2="346.57" y2="290.21"/><line class="cls-22" x1="253.43" y1="252.46" x2="351" y2="284.17"/><line class="cls-21" x1="253.46" y1="252.36" x2="355.34" y2="277.76"/><line class="cls-21" x1="253.48" y1="252.26" x2="358.95" y2="270.86"/><line class="cls-24" x1="253.49" y1="252.16" x2="362.39" y2="263.6"/><line class="cls-23" x1="253.5" y1="252.05" x2="365.93" y2="255.98"/><line class="cls-23" x1="253.5" y1="251.95" x2="368.93" y2="247.92"/><line class="cls-24" x1="253.49" y1="251.84" x2="354.93" y2="241.18"/><line class="cls-21" x1="253.48" y1="251.74" x2="333.25" y2="237.67"/><line class="cls-20" x1="282.89" y1="130.5" x2="282.89" y2="176.58"/><line class="cls-20" x1="291.51" y1="135.24" x2="291.51" y2="176.58"/><line class="cls-20" x1="300.13" y1="140.52" x2="300.13" y2="176.58"/><line class="cls-20" x1="308.75" y1="147.59" x2="308.75" y2="176.58"/><line class="cls-20" x1="317.38" y1="156.01" x2="317.38" y2="176.58"/><line class="cls-20" x1="326" y1="165.08" x2="326" y2="176.58"/></g><g class="cls-25"><g class="cls-5"><rect class="cls-14" x="192" y="192" width="120" height="120"/></g></g><g class="cls-5"><circle class="cls-16" cx="252" cy="252" r="45"/></g><g class="cls-26"><g class="cls-27"><g class="cls-5"><polygon class="cls-14" points="25.99 244.65 96.47 219 116.99 275.38 46.52 301.03 65.12 262.34 25.99 244.65"/></g></g></g><g class="cls-27"><g class="cls-5"><polygon class="cls-28" points="25.99 244.65 96.47 219 116.99 275.38 46.52 301.03 65.12 262.34 25.99 244.65"/></g></g><g class="cls-29"><g class="cls-30"><g class="cls-5"><polygon class="cls-14" points="478.57 245.08 408.09 219.43 387.57 275.81 458.05 301.46 439.44 262.77 478.57 245.08"/></g></g></g><g class="cls-30"><g class="cls-5"><polygon class="cls-28" points="478.57 245.08 408.09 219.43 387.57 275.81 458.05 301.46 439.44 262.77 478.57 245.08"/></g></g><g class="cls-31"><g class="cls-5"><rect class="cls-14" x="72" y="183" width="360" height="60"/></g></g><g class="cls-31"><g class="cls-5"><rect class="cls-28" x="72" y="183" width="360" height="60"/></g></g><g class="cls-32"><g class="cls-5"><rect class="cls-14" x="60" y="228" width="68.65" height="58.55"/></g></g><g class="cls-5"><polyline class="cls-33" points="103.33 243 113.65 271.55 75 243"/></g><g class="cls-34"><g class="cls-5"><rect class="cls-14" x="375.6" y="228" width="68.65" height="58.55"/></g></g><g class="cls-5"><polyline class="cls-33" points="400.92 243 390.6 271.55 429.25 243"/><text class="cls-35" transform="translate(168 225)">EN<tspan class="cls-36" x="41.2" y="0">T</tspan><tspan x="59.18" y="0">OC</tspan><tspan class="cls-37" x="103.19" y="0">R</tspan><tspan x="123.98" y="0">OC</tspan></text><text class="cls-38" transform="translate(231.83 258.27)">FRENCH<tspan x="2.97" y="19">TOUCH</tspan></text><text class="cls-39" transform="translate(168.85 162.12) rotate(-54.84)">C</text><text class="cls-39" transform="translate(176.04 151.84) rotate(-47.48)">R</text><text class="cls-39" transform="matrix(0.76, -0.65, 0.65, 0.76, 184.55, 142.62)">E</text><text class="cls-39" transform="matrix(0.83, -0.56, 0.56, 0.83, 192.86, 135.46)">A</text><text class="cls-39" transform="translate(202.62 128.95) rotate(-27.43)">T</text><text class="cls-39" transform="matrix(0.92, -0.38, 0.38, 0.92, 211.77, 124.16)">I</text><text class="cls-39" transform="translate(217.42 121.78) rotate(-17.06)">O</text><text class="cls-40" transform="translate(229.44 118.1) rotate(-9.63)">N</text><text class="cls-39" transform="translate(251.99 115.56) rotate(3.63)">O</text><text class="cls-40" transform="matrix(0.98, 0.19, -0.19, 0.98, 264.56, 116.32)">R</text><text class="cls-39" transform="translate(276.9 118.7) rotate(16.57)">I</text><text class="cls-40" transform="translate(282.72 120.45) rotate(22.18)">G</text><text class="cls-39" transform="translate(294.75 125.3) rotate(27.82)">I</text><text class="cls-40" transform="matrix(0.84, 0.55, -0.55, 0.84, 300.12, 128.15)">N</text><text class="cls-40" transform="matrix(0.76, 0.65, -0.65, 0.76, 310.03, 134.61)">A</text><text class="cls-40" transform="matrix(0.68, 0.73, -0.73, 0.68, 319.61, 142.83)">L</text><text class="cls-40" transform="matrix(0.6, 0.8, -0.8, 0.6, 326.69, 150.36)">E</text></g><path class="cls-6" d="M252,144.44A10.94,10.94,0,0,0,241,155l2.22,1.62,2.14-2.75,3.75,2.81,2.84-2.84,2.84,2.84,3.75-2.81,2.15,2.76,2.21-1.55A11,11,0,0,0,252,144.44Z"/><path class="cls-6" d="M261.11,157.87l-1.85,6.06.75-6.22-1.66-2.13-3,2.29-1,6.63-.2-6.76v0L252,155.57l-2.13,2.13.11,6.79-1.31-6.63-3-2.29-1.51,1.94.6,6.41L243,158l-3.27-2.39,2.53,10.95s2.74,2,9.73,2,9.73-2,9.73-2l2.68-10.95Z"/></svg>