<svg xmlns="http://www.w3.org/2000/svg" xmlns:xlink="http://www.w3.org/1999/xlink" version="1.1" x="0px" y="0px" viewBox="0 0 1417.3 1417.3" enable-background="new 0 0 1417.3 1417.3" xml:space="preserve"><path fill="#374553" d="M701.3,424.3c-140,0-253.9,111.3-258.3,250.2l52.4,38.2l50.5-64.9l88.5,66.4l67-67l67,67l88.5-66.4  l50.7,65.2l52.1-36.6C956.3,536.7,842,424.3,701.3,424.3z"></path><path fill="#374553" d="M917.2,741.4l-43.6,143l17.6-146.8l-39.2-50.4l-72,54l-23.7,156.6l-4.8-159.7c0-0.2,0-0.4,0-0.6l-50.3-50.3  l-50.3,50.3l2.5,160.3l-30.9-156.6l-72-54l-35.7,45.9L529,884.4l-40-140.7l-77.3-56.4l59.8,258.5c0,0,64.6,47.3,229.8,47.3  s229.8-47.3,229.8-47.3l63.4-258.5L917.2,741.4z"></path></svg>
